<mxfile host="app.diagrams.net" modified="2023-03-26T07:21:57.126Z" agent="5.0 (Macintosh; Intel Mac OS X 10_15_7) AppleWebKit/537.36 (KHTML, like Gecko) Chrome/111.0.0.0 Safari/537.36 Edg/111.0.1661.51" etag="E_1gVxP8lVIfBiwyFYFh" version="21.0.2" type="github">
  <diagram name="Page-1" id="OsygoTujaHbDf-WOFJto">
    <mxGraphModel dx="1140" dy="713" grid="1" gridSize="10" guides="1" tooltips="1" connect="0" arrows="1" fold="1" page="1" pageScale="1" pageWidth="850" pageHeight="1100" math="0" shadow="0">
      <root>
        <mxCell id="0" />
        <mxCell id="1" parent="0" />
        <mxCell id="z7XwELZLiKw5E1tgLAwY-27" value="" style="rounded=0;whiteSpace=wrap;html=1;" vertex="1" parent="1">
          <mxGeometry x="180" y="80" width="530" height="460" as="geometry" />
        </mxCell>
        <mxCell id="z7XwELZLiKw5E1tgLAwY-2" value="25M2" style="whiteSpace=wrap;html=1;aspect=fixed;" vertex="1" parent="1">
          <mxGeometry x="180" y="80" width="100" height="100" as="geometry" />
        </mxCell>
        <mxCell id="z7XwELZLiKw5E1tgLAwY-3" value="25M2" style="whiteSpace=wrap;html=1;aspect=fixed;" vertex="1" parent="1">
          <mxGeometry x="180" y="380" width="100" height="100" as="geometry" />
        </mxCell>
        <mxCell id="z7XwELZLiKw5E1tgLAwY-4" value="25M2" style="whiteSpace=wrap;html=1;aspect=fixed;" vertex="1" parent="1">
          <mxGeometry x="180" y="180" width="100" height="100" as="geometry" />
        </mxCell>
        <mxCell id="z7XwELZLiKw5E1tgLAwY-5" value="25M2" style="whiteSpace=wrap;html=1;aspect=fixed;" vertex="1" parent="1">
          <mxGeometry x="180" y="280" width="100" height="100" as="geometry" />
        </mxCell>
        <mxCell id="z7XwELZLiKw5E1tgLAwY-14" value="30M2" style="rounded=0;whiteSpace=wrap;html=1;" vertex="1" parent="1">
          <mxGeometry x="540" y="290" width="120" height="190" as="geometry" />
        </mxCell>
        <mxCell id="z7XwELZLiKw5E1tgLAwY-15" value="" style="rounded=0;whiteSpace=wrap;html=1;" vertex="1" parent="1">
          <mxGeometry x="540" y="180" width="120" height="110" as="geometry" />
        </mxCell>
        <mxCell id="z7XwELZLiKw5E1tgLAwY-16" value="" style="rounded=0;whiteSpace=wrap;html=1;" vertex="1" parent="1">
          <mxGeometry x="430" y="80" width="230" height="100" as="geometry" />
        </mxCell>
        <mxCell id="z7XwELZLiKw5E1tgLAwY-17" value="" style="endArrow=none;html=1;rounded=0;" edge="1" parent="1">
          <mxGeometry width="50" height="50" relative="1" as="geometry">
            <mxPoint x="539" y="224" as="sourcePoint" />
            <mxPoint x="660" y="225" as="targetPoint" />
          </mxGeometry>
        </mxCell>
        <mxCell id="z7XwELZLiKw5E1tgLAwY-18" value="Y tế" style="text;html=1;strokeColor=none;fillColor=none;align=center;verticalAlign=middle;whiteSpace=wrap;rounded=0;" vertex="1" parent="1">
          <mxGeometry x="570" y="185" width="60" height="30" as="geometry" />
        </mxCell>
        <mxCell id="z7XwELZLiKw5E1tgLAwY-19" value="Hiệu trưởng" style="text;html=1;strokeColor=none;fillColor=none;align=center;verticalAlign=middle;whiteSpace=wrap;rounded=0;" vertex="1" parent="1">
          <mxGeometry x="570" y="240" width="60" height="30" as="geometry" />
        </mxCell>
        <mxCell id="z7XwELZLiKw5E1tgLAwY-20" value="" style="endArrow=none;html=1;rounded=0;" edge="1" parent="1">
          <mxGeometry width="50" height="50" relative="1" as="geometry">
            <mxPoint x="487.81999999999994" y="180" as="sourcePoint" />
            <mxPoint x="488" y="80" as="targetPoint" />
          </mxGeometry>
        </mxCell>
        <mxCell id="z7XwELZLiKw5E1tgLAwY-23" value="Kho" style="text;html=1;strokeColor=none;fillColor=none;align=center;verticalAlign=middle;whiteSpace=wrap;rounded=0;" vertex="1" parent="1">
          <mxGeometry x="424" y="110" width="60" height="30" as="geometry" />
        </mxCell>
        <mxCell id="z7XwELZLiKw5E1tgLAwY-24" value="Nhà bếp" style="text;html=1;strokeColor=none;fillColor=none;align=center;verticalAlign=middle;whiteSpace=wrap;rounded=0;" vertex="1" parent="1">
          <mxGeometry x="570" y="110" width="60" height="30" as="geometry" />
        </mxCell>
        <mxCell id="z7XwELZLiKw5E1tgLAwY-25" value="" style="endArrow=classic;html=1;rounded=0;exitX=0.951;exitY=0.87;exitDx=0;exitDy=0;exitPerimeter=0;" edge="1" parent="1" source="z7XwELZLiKw5E1tgLAwY-27">
          <mxGeometry width="50" height="50" relative="1" as="geometry">
            <mxPoint x="684" y="450" as="sourcePoint" />
            <mxPoint x="684" y="180" as="targetPoint" />
          </mxGeometry>
        </mxCell>
        <mxCell id="z7XwELZLiKw5E1tgLAwY-28" value="" style="rounded=0;whiteSpace=wrap;html=1;" vertex="1" parent="1">
          <mxGeometry x="365" y="540" width="120" height="50" as="geometry" />
        </mxCell>
        <mxCell id="z7XwELZLiKw5E1tgLAwY-30" value="Đường vào bếp" style="text;html=1;strokeColor=none;fillColor=none;align=center;verticalAlign=middle;whiteSpace=wrap;rounded=0;rotation=90;" vertex="1" parent="1">
          <mxGeometry x="628" y="294" width="140" height="30" as="geometry" />
        </mxCell>
        <mxCell id="z7XwELZLiKw5E1tgLAwY-31" value="&amp;nbsp;Nhà để xe phụ huynh/nhân viên" style="rounded=0;whiteSpace=wrap;html=1;" vertex="1" parent="1">
          <mxGeometry x="540" y="500" width="170" height="40" as="geometry" />
        </mxCell>
        <mxCell id="z7XwELZLiKw5E1tgLAwY-32" value="Bàn ghế đá/tiếp khách" style="rounded=0;whiteSpace=wrap;html=1;" vertex="1" parent="1">
          <mxGeometry x="180" y="500" width="100" height="40" as="geometry" />
        </mxCell>
        <mxCell id="z7XwELZLiKw5E1tgLAwY-33" value="Rửa" style="text;html=1;strokeColor=none;fillColor=none;align=center;verticalAlign=middle;whiteSpace=wrap;rounded=0;" vertex="1" parent="1">
          <mxGeometry x="654" y="110" width="60" height="30" as="geometry" />
        </mxCell>
      </root>
    </mxGraphModel>
  </diagram>
</mxfile>
